@startuml
skinparam {
    ClassBackgroundColor White
    ClassBorderColor Black
}

class ServiceValue {
    id: String
    href: String
    place: RelatedPlaceRefOrValue
    serviceOffering: ServiceOfferingRef
    serviceRelationship: ServiceRelationship
    << ...attributes are skipped ...>>
}

class MefServiceConfiguration {
    @type: String <<discriminator>>
}

class L1SubscriberUni {
    identifier: String[1]
    physicalLayer: L1UniPhysicalLayer[1]
}


MefServiceConfiguration <|-- L1SubscriberUni
ServiceValue "1" *--> "0..1" MefServiceConfiguration: serviceConfiguration

@enduml