@startuml errorEntities

class Error {
    message: string
    reason*: string
    referenceError: uri
}

class Error400 {
    code*: Error400Code
}
Error <|-- Error400

enum Error400Code {
    missingQueryParameter
    missingQueryValue
    invalidQuery
    invalidBody
}

class Error401 {
    code*: Error401Code
}
Error <|-- Error401

enum Error401Code {
    missingCredentials
    invalidCredentials
}

class Error403 {
    code*: Error403Code
}
Error <|-- Error403

enum Error403Code {
    accessDenied
    forbiddenRequester
    tooManyUsers
}

class Error404 {
    code*: string
}
Error <|-- Error404

class Error422 {
    code*: Error422Code
    propertyPath: string
}
Error <|-- Error422

enum Error422Code {
    missingProperty
    invalidValue
    invalidFormat
    referenceNotFound
    unexpectedProperty
    tooLargeDataset
    tooManyRecords
    tooManyRequests
    otherIssue
}

class Error500 {
    code*: string
}

Error <|-- Error500

class Error501 {
    code*: string
}
Error <|-- Error501

@enduml