@startuml performanceMonitoringDataModelPart3

class PerformanceJobComplexQuery_Create {
    buyerJobId: string
    consumingApplicationId: string
    creationDateTime.gt: date-time
    creationDateTime.lt: date-time
    producingApplicationId: string
    state: PerformanceJobStateType
}

PerformanceJobComplexQuery_Create *--> MonitoredObjectRef : monitoredObject
PerformanceJobComplexQuery_Create *--> PerformanceProfileRefOrValue_Query : performanceProfile
PerformanceJobComplexQuery_Create *--> ScheduleDefinition : scheduleDefinition

class PerformanceProfileRefOrValue_Query {

}

class PerformanceProfileRef {
    performanceProfileHref: string
    performanceProfileId*: string
    @type*: string
}

class PerformanceProfileValue_Query {

    jobPriority: integer
    jobType: JobType
    outputFormat: OutputFormat
    resultFormat: ResultFormat
    @type*: string
}

PerformanceProfileValue_Query *--> TimeDuration : granularity
PerformanceProfileValue_Query *--> TimeDuration : reportingPeriod
PerformanceProfileValue_Query *--> ServiceSpecificConfiguration : serviceSpecificConfiguration

PerformanceProfileRefOrValue_Query <|-- PerformanceProfileRef
PerformanceProfileRefOrValue_Query <|-- PerformanceProfileValue_Query

@enduml