@startuml

set namespaceSeparator none

class ServiceValue {

    id: string 
    href: string 
    place: RelatedPlaceRefOrValue
    serviceOffering: ServiceOfferingRef
    serviceRelationship: ServiceRelationshipWithGrouping
   <<... attributes are skipped ...>>
}

class MefServiceConfiguration {
    @type*: string <<discriminator>>
}

ServiceValue *-->"0..1" MefServiceConfiguration : serviceConfiguration

class urn:mef:lso:spec:service:ip-uni:v1.0.0:all <<ServiceSpecification>> {

    <<... attributes are skipped ...>>
}
MefServiceConfiguration <|-- "urn:mef:lso:spec:service:ip-uni:v1.0.0:all"


class urn:mef:lso:spec:service:ipvc:v1.0.0:all <<ServiceSpecification>> {

    <<... attributes are skipped ...>>
}
MefServiceConfiguration <|-- "urn:mef:lso:spec:service:ipvc:v1.0.0:all"

class urn:mef:lso:spec:service:ipvc-end-point:v1.0.0:all <<ServiceSpecification>> {

    <<... attributes are skipped ...>>
}
MefServiceConfiguration <|-- "urn:mef:lso:spec:service:ipvc-end-point:v1.0.0:all"


@enduml