@startuml alarmDataModel

class Alarm {

    externalAlarmId: string
    isRootCause*: boolean
    probableCause: ProbableCause
    sourceSystemId: string
    specificProblem: string
}
Alarm_Common <|-- Alarm

Alarm *-->"1..*" AlarmedObjectRef : alarmedObject
Alarm *-->"*" Comment : comment
Alarm *--> AlarmRef : parentAlarm
Alarm *--> AlarmSpecificAttributes : alarmSpecificAttributes


class AlarmedObjectRef {

    id*: string
    href: string
    @referredType*: string
}



class AlarmRef {

    id*: string
    href: string
}



class AlarmSpecificAttributes {

    @type*: string
}


class Alarm_Common {

    id*: string
    href: uri
    alarmChangedTime: date-time
    alarmClearedTime: date-time
    alarmDetails*: string
    alarmedObjectType: string
    alarmRaisedTime*: date-time
    alarmReportingTime*: date-time
    alarmType*: AlarmType
    perceivedSeverity*: PerceivedSeverity
    plannedOutageIndicator: PlannedOutageIndicator
    reportingSystemId: string
    serviceAffecting*: boolean
    state*: AlarmState
}

Alarm_Common *-->"*" ServiceRef : affectedService
Alarm_Common *-->"*" AlarmRef : correlatedAlarm


class Comment {

    description: string
    systemIdentifier: string
    time: date-time
    userIdentifier: string
}

class EventSubscription {

    id: string
}
EventSubscriptionInput <|-- EventSubscription



class EventSubscriptionInput {

    callback*: string
    query: string
}


class ServiceRef {

    href: string
    id*: string
}


class TcaStatefulClearAlarm {

    performanceMetricName: string
    performanceMetricValue: number
    tcaPerformanceThresholdValue: number
    tcaWindowThresholdValue: number
    tcaWindowSize: number
}
AlarmSpecificAttributes <|-- TcaStatefulClearAlarm



class TcaStatefulSetAlarm {

    performanceMetricName: string
    performanceMetricValue: number
    tcaPerformanceThresholdValue: number
    tcaWindowThresholdValue: number
    tcaWindowSize: number
}
AlarmSpecificAttributes <|-- TcaStatefulSetAlarm



class TcaStatelessAlarm {

    performanceMetricName: string
    performanceMetricValue: number
    tcaPerformanceThresholdValue: number
    dampingFactor: number
    numberOfPmMetricCalculationIntervals: number
}
AlarmSpecificAttributes <|-- TcaStatelessAlarm



@enduml
